<svg xmlns="http://www.w3.org/2000/svg" width="67.459" height="83.027" viewBox="0 0 67.459 83.027"> <path id="Icon_metro-bin" data-name="Icon metro-bin" d="M17.686,31.3V83.193a5.2,5.2,0,0,0,5.189,5.189h46.7a5.2,5.2,0,0,0,5.189-5.189V31.3ZM33.253,78H28.064V41.68h5.189Zm10.378,0H38.442V41.68h5.189ZM54.01,78H48.821V41.68H54.01Zm10.378,0H59.2V41.68h5.189Zm11.676-62.27H59.2V9.248a3.9,3.9,0,0,0-3.892-3.892H37.145a3.9,3.9,0,0,0-3.892,3.892v6.486H16.388A3.9,3.9,0,0,0,12.5,19.626v6.486H79.956V19.626A3.9,3.9,0,0,0,76.064,15.734Zm-22.054,0H38.442V10.61H54.01v5.124Z" transform="translate(-12.496 -5.355)" fill="#fff" opacity="0.65"/> </svg>