<svg xmlns="http://www.w3.org/2000/svg" width="349.192" height="258.538" viewBox="0 0 349.192 258.538"> <g id="Group_163" data-name="Group 163" transform="translate(0)"> <path id="Path_26" data-name="Path 26" d="M168.4,384.958a22.255,22.255,0,0,0,22.259,22.252H495.319a22.254,22.254,0,0,0,22.259-22.252l0-158.248H168.39Zm34.682-46.325H263.77a6.3,6.3,0,1,1,0,12.607H203.081a6.3,6.3,0,1,1,0-12.607Zm0,22.075H263.77a6.3,6.3,0,1,1,0,12.607H203.081a6.3,6.3,0,1,1,0-12.607Z" transform="translate(-168.39 -148.672)" fill="#fff"/> <path id="Path_27" data-name="Path 27" d="M495.328,145.54H190.667A22.264,22.264,0,0,0,168.408,167.8v23.454H517.582V167.8A22.253,22.253,0,0,0,495.33,145.54Z" transform="translate(-168.39 -145.54)" fill="#fff"/> </g> </svg>