<svg xmlns="http://www.w3.org/2000/svg" width="347.195" height="347.2" viewBox="0 0 347.195 347.2"> <path id="Path_34" data-name="Path 34" d="M389.2,280l126-125.07a28.948,28.948,0,0,0,8.4-20.535c0-7.465-3.734-14-8.4-18.668-12.133-10.266-29.867-10.266-39.2,0L350,240.8l-125.07-126a28.949,28.949,0,0,0-20.535-8.4c-7.465,0-14,3.734-18.668,8.4a30.116,30.116,0,0,0-7.465,19.6q0,12.6,8.4,19.6L310.8,280l-126,125.07a28.949,28.949,0,0,0-8.4,20.535c0,7.465,3.734,14,8.4,18.668a30.116,30.116,0,0,0,19.6,7.465c7.465,0,14.934-2.8,19.6-8.4l126-124.14,125.07,126a26.858,26.858,0,0,0,19.6,8.4h.934c7.465,0,14-3.734,18.668-8.4,10.266-11.2,10.266-28.934.934-39.2Z" transform="translate(-176.403 -106.398)" fill="#fff"/> </svg>