<svg id="noun-cash-register-4426035" xmlns="http://www.w3.org/2000/svg" width="364.144" height="331.027" viewBox="0 0 364.144 331.027"> <path id="Path_29" data-name="Path 29" d="M455.165,210.772a12.007,12.007,0,0,0-6.2-3.8V137.023A13.527,13.527,0,0,0,435.447,123.5H418.908V108.045A15.443,15.443,0,0,0,403.453,92.59H353.7a15.443,15.443,0,0,0-15.455,15.455V123.5H219.785a13.527,13.527,0,0,0-13.523,13.523v69.934a12.04,12.04,0,0,0-6.213,3.8c-1.052,1.328-25.994,32.98-41.622,92.315H496.812c-15.624-59.333-40.583-90.981-41.653-92.3ZM233.311,150.546H421.924v55.683H233.311Zm-.942,133.946A10.632,10.632,0,1,1,243,273.86,10.613,10.613,0,0,1,232.369,284.492Zm21.188-38.42A10.632,10.632,0,1,1,264.19,235.44,10.621,10.621,0,0,1,253.558,246.072ZM280,284.492a10.632,10.632,0,1,1,10.632-10.632A10.628,10.628,0,0,1,280,284.492Zm21.157-38.42a10.632,10.632,0,1,1,10.65-10.632A10.583,10.583,0,0,1,301.157,246.072Zm26.46,38.42a10.632,10.632,0,1,1,10.632-10.632A10.633,10.633,0,0,1,327.617,284.492Zm21.188-38.42a10.632,10.632,0,1,1,10.618-10.632A10.628,10.628,0,0,1,348.806,246.072Zm26.4,38.42a10.632,10.632,0,1,1,10.663-10.632A10.633,10.633,0,0,1,375.2,284.492Zm21.2-38.42a10.632,10.632,0,1,1,10.632-10.632A10.648,10.648,0,0,1,396.406,246.072Zm26.429,38.42a10.632,10.632,0,1,1,10.632-10.632A10.633,10.633,0,0,1,422.835,284.492Z" transform="translate(-145.532 -92.59)" fill="#fff"/> <path id="Path_30" data-name="Path 30" d="M493.545,355.09H158.26a14.431,14.431,0,0,0-14.434,14.434v70.334a14.431,14.431,0,0,0,14.434,14.434H493.536a14.431,14.431,0,0,0,14.434-14.434V369.524A14.426,14.426,0,0,0,493.54,355.09ZM360.279,414.823H291.518V394.531h68.761Z" transform="translate(-143.826 -123.265)" fill="#fff"/> </svg>