<svg xmlns="http://www.w3.org/2000/svg" width="409.774" height="319.683" viewBox="0 0 409.774 319.683"> <g id="Group_275" data-name="Group 275" transform="translate(15206.057 -9806)"> <path id="Path_8" data-name="Path 8" d="M278.828,297.984a8.885,8.885,0,0,1-6.179-2.6,8.639,8.639,0,0,1,.325-12.033l199.031-185.7a8.512,8.512,0,0,1,11.708,12.359l-199.031,185.7a8.921,8.921,0,0,1-5.854,2.276Z" transform="translate(-15330.727 9733.071)" fill="#e7f2f8"/> <path id="Path_9" data-name="Path 9" d="M229.313,357.322a25.7,25.7,0,0,1-17.562-44.555l18.538-17.237c-5.529-.325-11.057-.65-16.586-1.3l-36.424,33.822a25.4,25.4,0,0,1-17.562,6.829,25.7,25.7,0,0,1-17.562-44.555l5.854-5.529c-29.594-6.179-54.636-14.635-70.572-25.367C92.073,358.623,177.277,434.72,280.045,434.72s187.978-76.1,202.607-175.289c-33.172,22.44-104.069,35.123-178.217,37.4L246.87,350.491a26.977,26.977,0,0,1-17.562,6.829Z" transform="translate(-15281.211 9690.963)" fill="#e7f2f8"/> <path id="Path_10" data-name="Path 10" d="M569.927,207.812v-.65c-.325-11.708-25.692-26.017-70.572-36.1l-90.733,84.556c100.493-5.2,160.652-29.594,161.306-47.806Z" transform="translate(-15366.211 9713.644)" fill="#e7f2f8"/> <path id="Path_11" data-name="Path 11" d="M300.412,252.34l102.121-95.29c-5.2-.65-10.732-.976-16.261-1.3L283.505,251.686c5.529.325,11.057.65,16.911.65Z" transform="translate(-15334.099 9717.574)" fill="#e7f2f8"/> <path id="Path_12" data-name="Path 12" d="M74.372,203.216v.65C74.7,217.2,106.894,233.46,162.5,243.542l95.609-89.112c-113.821,2.6-183.421,29.269-183.748,48.782Z" transform="translate(-15280.422 9717.912)" fill="#e7f2f8"/> <path id="Path_13" data-name="Path 13" d="M184.768,268.121a8.885,8.885,0,0,1-6.179-2.6,8.639,8.639,0,0,1,.325-12.033L377.946,67.464a8.512,8.512,0,1,1,11.708,12.359L190.623,265.845a9.35,9.35,0,0,1-5.854,2.276Z" transform="translate(-15306.586 9740.818)" fill="#e7f2f8"/> </g> </svg>