<svg xmlns="http://www.w3.org/2000/svg" width="560" height="560" viewBox="0 0 560 560"> <g id="Group_274" data-name="Group 274" transform="translate(-3254 -8177.253)"> <path id="Path_35" data-name="Path 35" d="M277.48,56.4v155.11H124.39V56.4ZM257.335,76.547h-112.8v114.82h112.8Z" transform="translate(3184 8177.253)" fill="#fff"/> <path id="Path_36" data-name="Path 36" d="M575.61,56.4v155.11H422.52V56.4ZM555.465,76.547h-112.8v114.82h112.8Z" transform="translate(3184 8177.253)" fill="#fff"/> <path id="Path_37" data-name="Path 37" d="M277.48,350.5V503.59H124.39V350.5Zm-20.145,20.145h-112.8v112.8h112.8Z" transform="translate(3184 8177.253)" fill="#fff"/> <path id="Path_38" data-name="Path 38" d="M386.26,483.45V459.278H366.115V483.45H341.943v-42.3h40.289V421H315.755V402.875H295.614l2.012,38.273H321.8V463.3H295.614v20.145H321.8v20.145H406.4V483.449Z" transform="translate(3184 8177.253)" fill="#fff"/> <path id="Path_39" data-name="Path 39" d="M146.55,247.77H124.39V227.625h22.16Z" transform="translate(3184 8177.253)" fill="#fff"/> <path id="Path_40" data-name="Path 40" d="M317.77,138.99H297.625V118.845H317.77Z" transform="translate(3184 8177.253)" fill="#fff"/> <path id="Path_41" data-name="Path 41" d="M319.79,78.562H297.63V58.417h22.16Z" transform="translate(3184 8177.253)" fill="#fff"/> <path id="Path_42" data-name="Path 42" d="M517.2,433.09H497.055V412.945H517.2Z" transform="translate(3184 8177.253)" fill="#fff"/> <path id="Path_43" data-name="Path 43" d="M170.72,290.07h20.145V269.929H170.72V249.784H150.575v18.129H126.4v48.344h24.172v16.117h62.449V294.1h-22.16V312.23H170.719Z" transform="translate(3184 8177.253)" fill="#fff"/> <path id="Path_44" data-name="Path 44" d="M557.48,227.62v20.145h18.129V267.91h-32.23V294.1H484.961v18.129h32.23v46.332h-22.16V332.371H448.7V312.226h16.113V294.1H452.726V273.952H519.2V237.694H493.015v-10.07h64.461Z" transform="translate(3184 8177.253)" fill="#fff"/> <path id="Path_45" data-name="Path 45" d="M313.74,247.77H251.295v20.145h-42.3V247.77H186.834V227.625h126.91Z" transform="translate(3184 8177.253)" fill="#fff"/> <path id="Path_46" data-name="Path 46" d="M317.77,149.07H297.625v68.488h42.3V183.312H317.77Z" transform="translate(3184 8177.253)" fill="#fff"/> <path id="Path_47" data-name="Path 47" d="M339.93,171.22h22.156v36.258h26.188V183.306h16.113v-32.23H339.93Z" transform="translate(3184 8177.253)" fill="#fff"/> <path id="Path_48" data-name="Path 48" d="M378.2,88.633H321.8v22.16h36.258v22.16h26.188v-22.16H406.4V56.406H358.06v22.16H378.2v10.07Z" transform="translate(3184 8177.253)" fill="#fff"/> <path id="Path_49" data-name="Path 49" d="M347.98,141.01H327.835V120.865H347.98Z" transform="translate(3184 8177.253)" fill="#fff"/> <path id="Path_50" data-name="Path 50" d="M295.61,280H275.465V259.855H295.61Z" transform="translate(3184 8177.253)" fill="#fff"/> <path id="Path_51" data-name="Path 51" d="M386.26,368.63H364.1V332.372H386.26Z" transform="translate(3184 8177.253)" fill="#fff"/> <path id="Path_52" data-name="Path 52" d="M352.02,362.59H331.875V342.445H352.02Z" transform="translate(3184 8177.253)" fill="#fff"/> <path id="Path_53" data-name="Path 53" d="M484.96,380.72H464.815V340.435H484.96Z" transform="translate(3184 8177.253)" fill="#fff"/> <path id="Path_54" data-name="Path 54" d="M555.47,483.45H519.208V503.6h56.406V451.22H555.469Z" transform="translate(3184 8177.253)" fill="#fff"/> <path id="Path_55" data-name="Path 55" d="M438.63,477.41H416.474V441.152H438.63Z" transform="translate(3184 8177.253)" fill="#fff"/> <path id="Path_56" data-name="Path 56" d="M317.77,376.69H297.625V330.358H317.77Z" transform="translate(3184 8177.253)" fill="#fff"/> <path id="Path_57" data-name="Path 57" d="M416.48,394.82H386.261V374.675H321.8V394.82h46.332v20.145H392.3v22.156h92.664V414.965H458.78V394.82H436.62v20.145H416.479Z" transform="translate(3184 8177.253)" fill="#fff"/> <path id="Path_58" data-name="Path 58" d="M442.66,360.57H416.476v22.16H396.331v-42.3h46.328Z" transform="translate(3184 8177.253)" fill="#fff"/> <path id="Path_59" data-name="Path 59" d="M468.85,443.16h20.145v40.289h18.129v20.145H444.679V483.449h24.172Z" transform="translate(3184 8177.253)" fill="#fff"/> <path id="Path_60" data-name="Path 60" d="M307.7,312.23H247.266v20.145H227.121V292.086H307.7Z" transform="translate(3184 8177.253)" fill="#fff"/> <path id="Path_61" data-name="Path 61" d="M343.96,247.77V265.9h42.3V247.77h26.188V227.625H325.832V247.77Z" transform="translate(3184 8177.253)" fill="#fff"/> <path id="Path_62" data-name="Path 62" d="M362.09,296.11H317.774V275.969H362.09Z" transform="translate(3184 8177.253)" fill="#fff"/> <path id="Path_63" data-name="Path 63" d="M388.27,302.16H366.11V322.3h44.32V275.973H388.27Z" transform="translate(3184 8177.253)" fill="#fff"/> <path id="Path_64" data-name="Path 64" d="M575.61,370.65H563.52v16.113H543.379V370.65H533.3V326.334h42.3Z" transform="translate(3184 8177.253)" fill="#fff"/> <path id="Path_65" data-name="Path 65" d="M517.2,390.79H495.04V370.645H517.2Z" transform="translate(3184 8177.253)" fill="#fff"/> <path id="Path_66" data-name="Path 66" d="M529.28,437.12h46.332V398.847H555.467v18.129H529.279Z" transform="translate(3184 8177.253)" fill="#fff"/> <path id="Path_67" data-name="Path 67" d="M547.41,475.39H525.25V455.245h22.16Z" transform="translate(3184 8177.253)" fill="#fff"/> <path id="Path_68" data-name="Path 68" d="M235.18,165.18H166.692V100.719H235.18Z" transform="translate(3184 8177.253)" fill="#fff"/> <path id="Path_69" data-name="Path 69" d="M533.31,165.18H464.822V100.719H533.31Z" transform="translate(3184 8177.253)" fill="#fff"/> <path id="Path_70" data-name="Path 70" d="M235.18,459.28H166.692V394.819H235.18Z" transform="translate(3184 8177.253)" fill="#fff"/> <path id="Path_71" data-name="Path 71" d="M438.63,503.6H416.474V483.455H438.63Z" transform="translate(3184 8177.253)" fill="#fff"/> <path id="Path_72" data-name="Path 72" d="M352.02,326.33H329.86V306.185h22.16Z" transform="translate(3184 8177.253)" fill="#fff"/> <path id="Path_73" data-name="Path 73" d="M509.14,265.9H489V245.755H509.14Z" transform="translate(3184 8177.253)" fill="#fff"/> <path id="Path_74" data-name="Path 74" d="M458.78,247.77H436.62V227.625h22.16Z" transform="translate(3184 8177.253)" fill="#fff"/> <path id="Path_75" data-name="Path 75" d="M575.61,320.29H555.465V300.145H575.61Z" transform="translate(3184 8177.253)" fill="#fff"/> <path id="Path_76" data-name="Path 76" d="M70,106.76V0H178.78V20.145H90.147v86.617Z" transform="translate(3184 8177.253)" fill="#fff"/> <path id="Path_77" data-name="Path 77" d="M630,106.76V0H521.22V20.145h88.633v86.617Z" transform="translate(3184 8177.253)" fill="#fff"/> <path id="Path_78" data-name="Path 78" d="M70,453.24V560H178.78V539.855H90.147V453.238Z" transform="translate(3184 8177.253)" fill="#fff"/> <path id="Path_79" data-name="Path 79" d="M630,453.24V560H521.22V539.855h88.633V453.238Z" transform="translate(3184 8177.253)" fill="#fff"/> </g> </svg>