<svg xmlns="http://www.w3.org/2000/svg" width="310.335" height="410.208" viewBox="0 0 310.335 410.208"> <g id="Group_57" data-name="Group 57" transform="translate(0 0)"> <path id="Path_2" data-name="Path 2" d="M190.755,476.728H355.127V279.86H175.38Z" transform="translate(-153.304 -66.52)" fill="#e7f2f8"/> <path id="Path_4" data-name="Path 4" d="M456.689,188.02l-19.051,53.342h69.293l19.051-53.342Z" transform="translate(-215.647 -44.688)" fill="#e7f2f8"/> <path id="Path_5" data-name="Path 5" d="M433.06,476.728h54.268L502.7,279.86H433.06Z" transform="translate(-214.559 -66.52)" fill="#e7f2f8"/> <path id="Path_6" data-name="Path 6" d="M306.379,126.1H341.03L328.422,20A22.564,22.564,0,0,0,302.216.331a.146.146,0,0,0-.066.009,22.582,22.582,0,0,0-18.167,27.305Z" transform="translate(-178.985 0.004)" fill="#e7f2f8"/> <path id="Path_7" data-name="Path 7" d="M470.477,14.4a21.462,21.462,0,0,0-11.44-12.59c-.009-.009-.024-.009-.042-.018a21.461,21.461,0,0,0-17.041-.083,26.157,26.157,0,0,0-14.165,14.757L384.91,126.086h3.353a8.331,8.331,0,0,1,7.855,5.544l10.121,28.556L469,34.813a26.158,26.158,0,0,0,1.48-20.415Z" transform="translate(-203.112 0.01)" fill="#e7f2f8"/> <path id="Path_3" data-name="Path 3" d="M325.679,187.29H146.42l19.1,53.893H344.778Z" transform="translate(-146.42 -44.515)" fill="#e7f2f8"/> </g> </svg>
